<?xml version="1.0" encoding="iso-8859-1"?>
<!-- Generator: Adobe Illustrator 19.0.0, SVG Export Plug-In . SVG Version: 6.00 Build 0)  -->
<svg version="1.1" id="Capa_1" xmlns="http://www.w3.org/2000/svg" xmlns:xlink="http://www.w3.org/1999/xlink" x="0px" y="0px"
	 viewBox="0 0 512.001 512.001" style="enable-background:new 0 0 512.001 512.001;" xml:space="preserve">
<path style="fill:#60A571;" d="M211.17,134.142c-35.454,11.832-76.117,3.658-104.34-24.565S70.443,40.701,82.265,5.247
	c35.454-11.832,76.117-3.658,104.34,24.565S222.991,98.698,211.17,134.142z"/>
<path style="fill:#498960;" d="M211.17,134.142c-35.454,11.832-76.117,3.658-104.34-24.565S70.443,40.701,82.265,5.247
	L211.17,134.142z"/>
<path style="fill:#B26327;" d="M252.387,69.168c-1.879-3.914-6.578-5.564-10.487-3.685c-19.141,9.188-31.347,27.32-35.593,52.686
	l-73.361-73.361c-3.071-3.07-8.047-3.07-11.116,0c-3.07,3.07-3.07,8.047,0,11.115l82.802,82.801
	c-0.071,15.215,2.229,26.669,2.354,27.271c0.763,3.719,4.037,6.282,7.691,6.282c0.523,0,1.055-0.052,1.588-0.161
	c4.253-0.873,6.993-5.027,6.12-9.279c-0.131-0.642-12.724-64.443,26.317-83.184C252.615,77.777,254.265,73.082,252.387,69.168z"/>
<path style="fill:#ED4444;" d="M333.55,166.216c44.175,15.529,81.047,55.836,70.244,147.675
	c-1.259,10.643-3.742,21.126-7.278,31.288c0,0-199.185,92.342-168.343,122.349c-8.48-0.779-17.018-0.71-25.486,0.183
	c-72.212,7.565-163.353-67.566-173.504-153.821C18.38,222.052,55.252,181.746,99.427,166.216
	c14.797-5.196,28.816-6.225,41.645-4.669c50.137,6.088,100.697,6.088,150.822,0C304.734,159.991,318.742,161.02,333.55,166.216z"/>
<g>
	<path style="fill:#C73636;" d="M106.426,313.891c-10.804-91.839,26.069-132.145,70.244-147.675
		c1.193-0.418,2.377-0.801,3.559-1.165c-13.071-0.76-26.129-1.921-39.158-3.504c-12.829-1.556-26.848-0.526-41.645,4.669
		c-44.174,15.529-81.047,55.836-70.244,147.675c10.151,86.254,101.292,161.385,173.504,153.821
		c8.469-0.893,17.006-0.961,25.487-0.183c-3.533-3.437-6.849-7.054-9.947-10.824C163.769,433.161,113.79,376.458,106.426,313.891z"
		/>
	<path style="fill:#C73636;" d="M195.101,345.18h173.12h80.441c22.213,55.269-49.855,135.874-105.326,166.821c0,0-20.245,0-49.256,0
		C159.132,512,170.662,394.492,195.101,345.18z"/>
</g>
<path style="fill:#F4D59F;" d="M228.173,467.528c-30.842-30.007-45.925-73.036-30.979-122.349h199.322h80.441
	c32.421,80.669-41.484,166.821-133.621,166.821C298.989,512,256.795,495.372,228.173,467.528z"/>
<path style="fill:#B26327;" d="M353.764,393.515h-31.438c-4.342,0-7.86-3.519-7.86-7.86s3.518-7.86,7.86-7.86h31.438
	c4.342,0,7.86,3.519,7.86,7.86S358.105,393.515,353.764,393.515z"/>
<g>
</g>
<g>
</g>
<g>
</g>
<g>
</g>
<g>
</g>
<g>
</g>
<g>
</g>
<g>
</g>
<g>
</g>
<g>
</g>
<g>
</g>
<g>
</g>
<g>
</g>
<g>
</g>
<g>
</g>
</svg>
