<?xml version="1.0" encoding="iso-8859-1"?>
<!-- Generator: Adobe Illustrator 19.0.0, SVG Export Plug-In . SVG Version: 6.00 Build 0)  -->
<svg version="1.1" id="Capa_1" xmlns="http://www.w3.org/2000/svg" xmlns:xlink="http://www.w3.org/1999/xlink" x="0px" y="0px"
	 viewBox="0 0 512 512" style="enable-background:new 0 0 512 512;" xml:space="preserve">
<path style="fill:#884D00;" d="M294.639,473.368c115.603,0,210.125-90.242,216.966-204.125
	c7.532-125.382-93.746-230.589-219.353-230.589h-72.193l-3.805,434.714H294.639z"/>
<circle style="fill:#AA6100;" cx="217.368" cy="256" r="217.368"/>
<path style="fill:#79AB03;" d="M217.367,452.882c-108.558,0-196.877-88.319-196.877-196.876S108.808,59.129,217.367,59.129
	c108.557,0,196.876,88.319,196.876,196.876S325.924,452.882,217.367,452.882z"/>
<g>
	<circle style="fill:#91CC04;" cx="217.368" cy="256" r="176.093"/>
	<circle style="fill:#91CC04;" cx="217.368" cy="256" r="176.093"/>
</g>
<path style="fill:#85BB04;" d="M199.7,80.79c5.807-0.582,11.698-0.883,17.661-0.883c97.261,0,176.103,78.842,176.103,176.103
	c0,97.251-78.842,176.093-176.103,176.093c-5.963,0-11.854-0.301-17.661-0.883c88.971-8.851,158.442-83.922,158.442-175.21
	C358.142,164.712,288.671,89.642,199.7,80.79z"/>
<g>
	<path style="fill:#C2FB3B;" d="M313.002,256.005c0,9.736-12.049,17.448-14.902,26.234c-2.957,9.105,2.156,22.407-3.36,29.986
		c-5.571,7.655-19.839,6.875-27.493,12.446c-7.579,5.515-11.217,19.356-20.321,22.312c-8.785,2.853-19.824-6.113-29.56-6.113
		s-20.775,8.966-29.56,6.113c-9.105-2.957-12.743-16.797-20.322-22.312c-7.655-5.571-21.922-4.792-27.492-12.447
		c-5.516-7.579-0.403-20.881-3.36-29.986c-2.853-8.785-14.902-16.498-14.902-26.233c0-9.735,12.049-17.448,14.902-26.234
		c2.957-9.105-2.156-22.407,3.36-29.986c5.571-7.655,19.839-6.875,27.492-12.446c7.579-5.516,11.217-19.356,20.321-22.312
		c8.785-2.853,19.824,6.113,29.56,6.113c9.736,0,20.775-8.966,29.56-6.113c9.105,2.957,12.743,16.797,20.322,22.312
		c7.655,5.571,21.922,4.792,27.492,12.447c5.515,7.579,0.403,20.881,3.36,29.986C300.953,238.557,313.002,246.27,313.002,256.005z"
		/>
	<path style="fill:#C2FB3B;" d="M217.367,105.259c-4.304,0-7.792,3.489-7.792,7.792v22.508c0,4.303,3.488,7.792,7.792,7.792
		c4.304,0,7.792-3.489,7.792-7.792v-22.508C225.159,108.748,221.67,105.259,217.367,105.259z"/>
	<path style="fill:#C2FB3B;" d="M176.187,118.796c-1.471-4.043-5.944-6.132-9.986-4.657c-4.044,1.472-6.129,5.942-4.657,9.987
		l7.697,21.15c1.151,3.164,4.139,5.129,7.323,5.129c0.884,0,1.785-0.152,2.664-0.472c4.043-1.472,6.128-5.942,4.656-9.987
		L176.187,118.796z"/>
	<path style="fill:#C2FB3B;" d="M132.133,140.942c-2.766-3.295-7.682-3.727-10.977-0.96c-3.296,2.767-3.727,7.681-0.96,10.977
		l14.469,17.242c1.541,1.837,3.748,2.783,5.973,2.783c1.767,0,3.545-0.598,5.004-1.823c3.296-2.767,3.727-7.681,0.96-10.977
		L132.133,140.942z"/>
	<path style="fill:#C2FB3B;" d="M90.52,190.317l19.492,11.254c1.227,0.709,2.567,1.045,3.889,1.045c2.693,0,5.312-1.397,6.755-3.897
		c2.152-3.727,0.875-8.492-2.852-10.643l-19.492-11.254c-3.725-2.153-8.494-0.876-10.643,2.852
		C85.517,183.4,86.794,188.165,90.52,190.317z"/>
	<path style="fill:#C2FB3B;" d="M76.094,237.45l22.165,3.908c0.458,0.081,0.913,0.119,1.363,0.119c3.71,0,6.997-2.661,7.664-6.44
		c0.748-4.238-2.082-8.279-6.32-9.026l-22.165-3.908c-4.241-0.744-8.279,2.082-9.026,6.321
		C69.026,232.662,71.856,236.702,76.094,237.45z"/>
	<path style="fill:#C2FB3B;" d="M107.145,273.74c-0.748-4.239-4.791-7.067-9.026-6.321l-22.166,3.908
		c-4.238,0.747-7.068,4.788-6.32,9.026c0.667,3.781,3.954,6.44,7.664,6.44c0.45,0,0.905-0.039,1.363-0.119l22.166-3.908
		C105.064,282.02,107.893,277.978,107.145,273.74z"/>
	<path style="fill:#C2FB3B;" d="M120.25,310.156c-2.151-3.728-6.918-5.003-10.643-2.852l-19.493,11.253
		c-3.727,2.152-5.003,6.917-2.852,10.643c1.443,2.5,4.062,3.897,6.755,3.897c1.321,0,2.663-0.337,3.889-1.045l19.493-11.254
		C121.125,318.648,122.402,313.883,120.25,310.156z"/>
	<path style="fill:#C2FB3B;" d="M145.019,339.895c-3.296-2.767-8.211-2.336-10.977,0.96l-14.468,17.242
		c-2.767,3.296-2.336,8.211,0.96,10.977c1.46,1.225,3.237,1.823,5.004,1.823c2.224,0,4.432-0.946,5.973-2.783l14.468-17.242
		C148.746,347.575,148.316,342.66,145.019,339.895z"/>
	<path style="fill:#C2FB3B;" d="M178.466,359.368c-4.044-1.473-8.516,0.613-9.987,4.656l-7.698,21.15
		c-1.472,4.044,0.613,8.515,4.656,9.987c0.88,0.32,1.78,0.472,2.664,0.472c3.182,0,6.171-1.965,7.323-5.129l7.698-21.15
		C184.595,365.31,182.51,360.84,178.466,359.368z"/>
	<path style="fill:#C2FB3B;" d="M216.555,366.227c-4.304,0-7.792,3.489-7.792,7.792v22.508c0,4.303,3.488,7.792,7.792,7.792
		s7.792-3.489,7.792-7.792v-22.508C224.346,369.715,220.859,366.227,216.555,366.227z"/>
	<path style="fill:#C2FB3B;" d="M264.682,364.303c-1.471-4.043-5.941-6.131-9.987-4.657c-4.043,1.472-6.128,5.942-4.656,9.987
		l7.697,21.15c1.151,3.164,4.139,5.129,7.323,5.129c0.884,0,1.785-0.152,2.663-0.472c4.044-1.472,6.129-5.942,4.657-9.987
		L264.682,364.303z"/>
	<path style="fill:#C2FB3B;" d="M299.258,341.376c-2.766-3.296-7.682-3.727-10.977-0.96c-3.296,2.766-3.727,7.681-0.96,10.977
		l14.468,17.242c1.541,1.837,3.748,2.783,5.973,2.783c1.767,0,3.545-0.598,5.004-1.823c3.296-2.766,3.727-7.681,0.96-10.977
		L299.258,341.376z"/>
	<path style="fill:#C2FB3B;" d="M343.402,319.261l-19.492-11.254c-3.727-2.153-8.493-0.875-10.643,2.852
		c-2.152,3.727-0.875,8.492,2.852,10.643l19.492,11.254c1.227,0.709,2.567,1.045,3.889,1.045c2.693,0,5.312-1.397,6.755-3.897
		C348.405,326.178,347.128,321.413,343.402,319.261z"/>
	<path style="fill:#C2FB3B;" d="M357.828,272.128l-22.166-3.908c-4.241-0.746-8.279,2.083-9.026,6.321
		c-0.747,4.238,2.082,8.279,6.32,9.026l22.166,3.908c0.458,0.081,0.913,0.119,1.363,0.119c3.71,0,6.997-2.661,7.664-6.44
		C364.894,276.916,362.066,272.875,357.828,272.128z"/>
	<path style="fill:#C2FB3B;" d="M326.776,235.837c0.667,3.781,3.954,6.44,7.664,6.44c0.45,0,0.904-0.039,1.362-0.119l22.166-3.908
		c4.239-0.747,7.069-4.788,6.321-9.026c-0.747-4.238-4.788-7.066-9.026-6.321l-22.166,3.908
		C328.858,227.558,326.028,231.599,326.776,235.837z"/>
	<path style="fill:#C2FB3B;" d="M313.672,199.422c1.443,2.5,4.062,3.897,6.755,3.897c1.321,0,2.663-0.337,3.889-1.045l19.493-11.254
		c3.727-2.152,5.003-6.917,2.852-10.643c-2.151-3.728-6.918-5.004-10.643-2.852l-19.493,11.254
		C312.797,190.929,311.52,195.694,313.672,199.422z"/>
	<path style="fill:#C2FB3B;" d="M288.902,169.683c1.46,1.225,3.237,1.823,5.004,1.823c2.224,0,4.432-0.946,5.973-2.783
		l14.468-17.242c2.767-3.296,2.336-8.211-0.96-10.977c-3.296-2.767-8.211-2.336-10.977,0.96l-14.468,17.242
		C285.176,162.003,285.606,166.918,288.902,169.683z"/>
	<path style="fill:#C2FB3B;" d="M268.484,114.416c-4.049-1.472-8.516,0.614-9.987,4.657l-7.697,21.15
		c-1.472,4.044,0.614,8.515,4.657,9.987c0.88,0.32,1.779,0.472,2.663,0.472c3.183,0,6.171-1.965,7.323-5.129l7.697-21.15
		C274.612,120.359,272.526,115.887,268.484,114.416z"/>
</g>
<circle cx="264.731" cy="122.419" r="6.926"/>
<circle cx="169.028" cy="121.764" r="6.926"/>
<circle cx="94.643" cy="183.682" r="6.926"/>
<circle cx="77.19" cy="278.928" r="6.926"/>
<circle cx="125.592" cy="363.006" r="6.926"/>
<circle cx="216.433" cy="396.521" r="6.926"/>
<circle cx="307.357" cy="363.38" r="6.926"/>
<circle cx="356.082" cy="279.895" r="6.926"/>
<circle cx="339.947" cy="184.41" r="6.926"/>
<circle cx="322.93" cy="316.422" r="6.926"/>
<circle cx="338.098" cy="233.632" r="6.926"/>
<circle cx="162.411" cy="175.454" r="6.926"/>
<circle cx="119.743" cy="233.716" r="6.926"/>
<circle cx="125.925" cy="294.003" r="6.926"/>
<circle cx="201.795" cy="357.926" r="6.926"/>
<circle cx="271.889" cy="338.904" r="6.926"/>
<circle cx="306.526" cy="288.839" r="6.926"/>
<circle cx="308.656" cy="219.555" r="6.926"/>
<circle cx="275.328" cy="178.966" r="6.926"/>
<g>
</g>
<g>
</g>
<g>
</g>
<g>
</g>
<g>
</g>
<g>
</g>
<g>
</g>
<g>
</g>
<g>
</g>
<g>
</g>
<g>
</g>
<g>
</g>
<g>
</g>
<g>
</g>
<g>
</g>
</svg>
