<?xml version="1.0" encoding="iso-8859-1"?>
<!-- Generator: Adobe Illustrator 19.0.0, SVG Export Plug-In . SVG Version: 6.00 Build 0)  -->
<svg version="1.1" id="Layer_1" xmlns="http://www.w3.org/2000/svg" xmlns:xlink="http://www.w3.org/1999/xlink" x="0px" y="0px"
	 viewBox="0 0 512 512" style="enable-background:new 0 0 512 512;" xml:space="preserve">
<path style="fill:#A4D64D;" d="M298.261,112.599L264.128,5.933C262.996,2.398,259.711,0,256,0c-3.711,0-6.996,2.398-8.128,5.933
	l-34.133,106.667c-0.83,2.596-0.371,5.431,1.235,7.632c1.606,2.201,4.167,3.502,6.893,3.502h68.267c2.725,0,5.286-1.301,6.892-3.502
	C298.633,118.03,299.091,115.195,298.261,112.599z"/>
<path style="fill:#8EC42F;" d="M319.393,60.558c-3.358-1.596-7.36-0.831-9.898,1.886L256,119.76l-53.494-57.316
	c-2.548-2.729-6.694-3.477-10.036-1.817c-3.242,1.612-5.147,5.204-4.657,8.793l12.8,93.867c0.576,4.228,4.188,7.38,8.454,7.38
	h93.867c4.267,0,7.878-3.152,8.455-7.38l12.8-93.867C324.69,65.737,322.751,62.153,319.393,60.558z"/>
<path style="fill:#76B030;" d="M352.543,127.306c-2.143-2.998-5.968-4.285-9.488-3.183l-59.983,18.745l-18.885-64.208
	c-1.069-3.632-4.401-6.126-8.187-6.126c-3.786,0-7.118,2.494-8.187,6.125l-18.885,64.208l-59.983-18.745
	c-3.37-1.055-7.143,0.134-9.3,2.93c-2.295,2.976-2.35,7.229-0.126,10.26l46.933,64c1.607,2.193,4.163,3.488,6.881,3.488h85.333
	c2.718,0,5.274-1.295,6.881-3.488l46.933-64C354.661,134.34,354.686,130.304,352.543,127.306z"/>
<g>
	<g>
		<path id="SVGCleanerId_0" style="fill:#FFEBB0;" d="M302.933,512h-93.867c-47.129,0-85.333-38.205-85.333-85.333V281.6
			c0-47.129,38.205-85.333,85.333-85.333h93.867c47.129,0,85.333,38.205,85.333,85.333v145.067
			C388.267,473.795,350.062,512,302.933,512z"/>
	</g>
	<g>
		<path id="SVGCleanerId_0_1_" style="fill:#FFEBB0;" d="M302.933,512h-93.867c-47.129,0-85.333-38.205-85.333-85.333V281.6
			c0-47.129,38.205-85.333,85.333-85.333h93.867c47.129,0,85.333,38.205,85.333,85.333v145.067
			C388.267,473.795,350.062,512,302.933,512z"/>
	</g>
</g>
<g>
	<g>
		<path id="SVGCleanerId_0_2_" style="fill:#FFDC73;" d="M302.933,512h-93.867c-47.129,0-85.333-38.205-85.333-85.333V281.6
			c0-47.129,38.205-85.333,85.333-85.333h93.867c47.129,0,85.333,38.205,85.333,85.333v145.067
			C388.267,473.795,350.062,512,302.933,512z"/>
	</g>
	<path style="fill:#FFDC73;" d="M136.533,426.667V281.6c0-47.129,38.205-85.333,85.333-85.333h-12.8
		c-47.129,0-85.333,38.205-85.333,85.333v145.067c0,47.129,38.205,85.333,85.333,85.333h12.8
		C174.738,512,136.533,473.795,136.533,426.667z"/>
</g>
<path style="fill:#FFD042;" d="M323.901,362.301l49.798,49.798c3.332,3.332,8.736,3.332,12.068,0l2.499-2.499V302.933l-2.499-2.499
	c-3.332-3.332-8.736-3.332-12.068,0l-49.798,49.798C320.569,353.565,320.569,358.969,323.901,362.301z"/>
<path style="fill:#FFC412;" d="M340.967,350.233l47.299-47.299l-2.499-2.499c-3.332-3.332-8.736-3.332-12.068,0l-49.798,49.799
	c-3.332,3.332-3.332,8.735,0,12.067l49.798,49.799c3.332,3.332,8.736,3.332,12.068,0l2.499-2.5l-47.299-47.299
	C337.635,358.969,337.635,353.565,340.967,350.233z"/>
<path style="fill:#FFD042;" d="M385.767,288.366l2.499-2.499V281.6c0-32.341-17.995-60.478-44.515-74.951l-19.851,19.851
	c-3.332,3.332-3.332,8.736,0,12.068l49.798,49.798C377.031,291.698,382.435,291.698,385.767,288.366z"/>
<path style="fill:#FFC412;" d="M340.967,226.499l13.159-13.159c-3.285-2.467-6.747-4.711-10.374-6.691l-19.851,19.851
	c-3.332,3.332-3.332,8.735,0,12.067l49.798,49.799c3.332,3.332,8.736,3.332,12.068,0l2.498-2.499l-47.299-47.299
	C337.635,235.235,337.635,229.831,340.967,226.499z"/>
<path style="fill:#FFD042;" d="M249.966,300.434l-49.798,49.798c-3.332,3.332-3.332,8.736,0,12.068l49.798,49.798
	c3.332,3.332,8.736,3.332,12.068,0l49.798-49.798c3.332-3.332,3.332-8.736,0-12.068l-49.798-49.798
	C258.702,297.102,253.298,297.102,249.966,300.434z"/>
<path style="fill:#FFC412;" d="M218.636,362.301c-3.332-3.332-3.332-8.735,0-12.067l46.598-46.599l-3.2-3.2
	c-3.332-3.332-8.736-3.332-12.068,0l-49.798,49.799c-3.332,3.332-3.332,8.735,0,12.067l49.798,49.799
	c3.332,3.332,8.736,3.332,12.068,0l3.2-3.2L218.636,362.301z"/>
<path style="fill:#FFD042;" d="M249.966,424.168l-49.798,49.798c-3.332,3.332-3.332,8.736,0,12.068L226.133,512h59.733
	l25.966-25.966c3.332-3.332,3.332-8.736,0-12.068l-49.798-49.798C258.702,420.835,253.298,420.835,249.966,424.168z"/>
<path style="fill:#FFC412;" d="M220.099,473.966l45.867-45.867l-3.932-3.933c-3.332-3.332-8.736-3.332-12.068,0l-49.798,49.799
	c-3.332,3.332-3.332,8.735,0,12.067L226.133,512h19.932l-25.966-25.966C216.767,482.702,216.767,477.298,220.099,473.966z"/>
<g>
	<path style="fill:#FFD042;" d="M126.233,424.168l-2.499,2.499c0,33.47,19.28,62.422,47.33,76.402l17.036-17.036
		c3.332-3.332,3.332-8.736,0-12.068l-49.798-49.798C134.969,420.835,129.565,420.835,126.233,424.168z"/>
	<path style="fill:#FFD042;" d="M323.901,486.034l17.036,17.036c28.05-13.981,47.33-42.933,47.33-76.403l-2.499-2.499
		c-3.332-3.332-8.736-3.332-12.068,0l-49.798,49.798C320.569,477.298,320.569,482.702,323.901,486.034z"/>
</g>
<path style="fill:#FFC412;" d="M343.833,486.034c-3.332-3.332-3.332-8.735,0-12.067l44.382-44.382
	c0.033-0.969,0.052-1.94,0.052-2.917l-2.499-2.499c-3.332-3.332-8.736-3.332-12.068,0l-49.798,49.799
	c-3.332,3.332-3.332,8.735,0,12.067l17.036,17.036c4.352-2.169,8.492-4.7,12.382-7.55L343.833,486.034z"/>
<path style="fill:#FFD042;" d="M262.034,288.366l49.798-49.798c3.332-3.332,3.332-8.736,0-12.068L281.6,196.267h-51.2
	l-30.233,30.233c-3.332,3.332-3.332,8.736,0,12.068l49.798,49.798C253.298,291.698,258.702,291.698,262.034,288.366z"/>
<path style="fill:#FFC412;" d="M218.636,238.567c-3.332-3.332-3.332-8.735,0-12.067l30.233-30.234H230.4l-30.233,30.233
	c-3.332,3.332-3.332,8.735,0,12.067l49.798,49.799c3.332,3.332,8.736,3.332,12.068,0l3.2-3.2L218.636,238.567z"/>
<g>
	<path style="fill:#FFD042;" d="M188.099,350.233l-49.798-49.798c-3.332-3.332-8.736-3.332-12.068,0l-2.499,2.499V409.6l2.499,2.499
		c3.332,3.332,8.736,3.332,12.068,0l49.798-49.798C191.431,358.969,191.431,353.565,188.099,350.233z"/>
	<path style="fill:#FFD042;" d="M188.099,226.499l-19.851-19.851c-26.521,14.474-44.515,42.61-44.515,74.951v4.267l2.499,2.499
		c3.332,3.332,8.736,3.332,12.068,0l49.798-49.798C191.431,235.235,191.431,229.831,188.099,226.499z"/>
</g>
<g>
	<path style="fill:#FFC412;" d="M136.533,426.667v-3.845c-3.264-1.889-7.507-1.446-10.301,1.346l-2.499,2.499
		c0,33.47,19.28,62.422,47.33,76.402l4.646-4.646C152.149,483.235,136.533,456.783,136.533,426.667z"/>
	<path style="fill:#FFC412;" d="M126.233,300.434l-2.499,2.499V409.6l2.499,2.499c2.794,2.794,7.037,3.235,10.301,1.346V299.088
		C133.269,297.199,129.026,297.641,126.233,300.434z"/>
	<path style="fill:#FFC412;" d="M173.153,211.553l-4.905-4.905c-26.521,14.474-44.515,42.61-44.515,74.951v4.267l2.499,2.499
		c2.794,2.793,7.037,3.235,10.301,1.346V281.6C136.533,252.587,151.026,226.971,173.153,211.553z"/>
</g>
<g>
</g>
<g>
</g>
<g>
</g>
<g>
</g>
<g>
</g>
<g>
</g>
<g>
</g>
<g>
</g>
<g>
</g>
<g>
</g>
<g>
</g>
<g>
</g>
<g>
</g>
<g>
</g>
<g>
</g>
</svg>
